<svg xmlns="http://www.w3.org/2000/svg" viewBox="0 0 105 34.892">
  <defs>
    <style>
      .cls-1 {
        fill: #54565b;
      }

      .cls-2 {
        fill: #ff9d3c;
      }

      .cls-3 {
        fill: #f4f5f7;
      }
    </style>
  </defs>
  <g id="ukki-logo-vector" transform="translate(-134.2 -233.2)">
    <path id="Path_40" data-name="Path 40" class="cls-1" d="M199.335,290.829c-.163.067-.306.115-.44.172a13.66,13.66,0,0,1-3.859.958,9.349,9.349,0,0,1-1.714.077A13.11,13.11,0,0,1,182.73,285.8a12.382,12.382,0,0,1-1.8-4.846,13.072,13.072,0,0,1,9.9-14.729,12.056,12.056,0,0,1,4.012-.306,13.025,13.025,0,0,1,11.644,9.758,13.134,13.134,0,0,1-2.94,12.009c-.393.441-.843.824-1.264,1.235-.105.105-.22.2-.335.306a1.367,1.367,0,0,0,.268.555c1.149,1.887,2.3,3.764,3.447,5.65.067.115.144.23.211.345a.553.553,0,0,1-.182.795q-.761.488-1.551.948a.541.541,0,0,1-.823-.211c-.373-.584-.728-1.178-1.082-1.762l-2.585-4.223C199.555,291.154,199.449,291,199.335,290.829Zm1.274-2.94a.752.752,0,0,0,.46-.259,11.28,11.28,0,1,0-16.576-2.365,10.916,10.916,0,0,0,2.241,2.452c.077.067.163.163.316.115-.029-.086-.048-.153-.067-.211a7.314,7.314,0,0,1-.5-2.863c.01-2.681,0-5.353,0-8.035v-5.564c0-.163.01-.326.019-.5a.985.985,0,0,1,.565.115c2.04.709,4.07,1.427,6.1,2.126.823.287.5.287,1.341-.01,2.04-.709,4.07-1.427,6.1-2.126.163-.057.326-.182.546-.1,0,.172.01.335.01.5v13.646a7.4,7.4,0,0,1-.488,2.768C200.656,287.678,200.637,287.774,200.608,287.889Z" transform="translate(-42.124 -29.541)"/>
    <path id="Path_41" data-name="Path 41" class="cls-1" d="M760.587,315.173c.479-.44.9-.938,1.35-1.408.469-.488.919-.986,1.388-1.475l1.36-1.446h3.15a.532.532,0,0,1-.22.364l-4,4.29c-.124.134-.249.278-.393.431.105.144.2.278.306.4,1.35,1.618,2.691,3.237,4.041,4.855.105.124.211.259.335.421a.562.562,0,0,1-.192.077h-2.834a1.121,1.121,0,0,1-.144-.038c-1.36-1.618-2.748-3.266-4.127-4.913-.182.077-.125.211-.125.316v3.993c0,.182-.01.364-.019.565a.658.658,0,0,1-.192.067H758a.552.552,0,0,1-.124-.038,1.114,1.114,0,0,1-.048-.268c-.01-.115,0-.239,0-.354V306.1a1.25,1.25,0,0,1,.057-.594,14.064,14.064,0,0,1,2.547-.01,2.2,2.2,0,0,1,.057.268c.01.153,0,.306,0,.45v8.9A.255.255,0,0,0,760.587,315.173Z" transform="translate(-563.905 -65.329)"/>
    <path id="Path_42" data-name="Path 42" class="cls-1" d="M639.553,316.092c1.58,1.906,3.131,3.764,4.673,5.612-.029.144-.115.134-.2.134-.871,0-1.752-.01-2.624.01a.6.6,0,0,1-.5-.278c-1.216-1.446-2.423-2.892-3.639-4.329-.105-.125-.182-.287-.364-.345-.124.124-.077.287-.077.431-.01,1.293,0,2.6,0,3.888,0,.182-.01.364-.01.565a5.543,5.543,0,0,1-1.312.057,7.441,7.441,0,0,1-1.226-.029c-.029-.038-.048-.048-.048-.067a.073.073,0,0,1-.019-.048c-.01-.134-.01-.268-.01-.4q0-7.757.01-15.514a.567.567,0,0,1,.048-.134,2.924,2.924,0,0,1,.824-.038q.431-.014.862,0a4.4,4.4,0,0,1,.862.038,1.907,1.907,0,0,1,.038.613v8.494c0,.182.01.354.019.527.163.057.211-.057.278-.125.431-.45.852-.91,1.283-1.36.785-.833,1.57-1.666,2.346-2.509a.77.77,0,0,1,.651-.3c.823.019,1.647.01,2.48.01.1,0,.192.01.306.019-.019.192-.153.278-.259.383l-3.964,4.252A3.8,3.8,0,0,0,639.553,316.092Z" transform="translate(-452.121 -65.463)"/>
    <path id="Path_43" data-name="Path 43" class="cls-2" d="M1009.509,361.9a14.5,14.5,0,0,1,2.585.01,1.252,1.252,0,0,1,.038.536v5.612a5.266,5.266,0,0,0,.1,1.159,1.871,1.871,0,0,0,1.676,1.58,3.558,3.558,0,0,0,.958.01,1.882,1.882,0,0,0,1.743-1.743,8.538,8.538,0,0,0,.067-1.111c.009-1.8,0-3.6,0-5.411v-.6a2.118,2.118,0,0,1,.871-.077c.287-.01.575,0,.862,0s.565.01.871.01a2.925,2.925,0,0,1,.038.373c0,2.126.01,4.242-.01,6.368a5.78,5.78,0,0,1-.125,1.149,3.748,3.748,0,0,1-2.231,2.748,5.144,5.144,0,0,1-1.6.431,7.432,7.432,0,0,1-2.758-.163,5.054,5.054,0,0,1-.756-.268,3.828,3.828,0,0,1-2.3-3.266c-.029-.3-.038-.6-.038-.91v-5.909C1009.5,362.255,1009.509,362.092,1009.509,361.9Z" transform="translate(-791.483 -116.328)"/>
    <path id="Path_44" data-name="Path 44" class="cls-1" d="M500.884,361.842a15.238,15.238,0,0,1,2.566-.019.991.991,0,0,1,.057.527c0,1.848,0,3.706.01,5.554a7.674,7.674,0,0,0,.077,1.053,1.9,1.9,0,0,0,1.829,1.772,3.258,3.258,0,0,0,1.1-.067,1.806,1.806,0,0,0,1.417-1.475,5.36,5.36,0,0,0,.105-1.1c.01-1.906,0-3.8.01-5.708,0-.182.01-.364.019-.536a15,15,0,0,1,2.557-.029.9.9,0,0,1,.057.527V368.4a2.182,2.182,0,0,1-.01.354,7.377,7.377,0,0,1-.144,1.044,3.708,3.708,0,0,1-1.963,2.5,5.017,5.017,0,0,1-1.724.536,7.642,7.642,0,0,1-2.911-.144,4.429,4.429,0,0,1-1.283-.575A3.691,3.691,0,0,1,501,369.675a5.549,5.549,0,0,1-.115-1.053q-.014-3.261-.01-6.522C500.865,362.043,500.884,361.957,500.884,361.842Z" transform="translate(-331.56 -116.259)"/>
    <path id="Path_45" data-name="Path 45" class="cls-2" d="M1137.129,370.676h5.6a8.351,8.351,0,0,1,.019,2.136c-.134.01-.278.029-.431.038h-8.2a1.109,1.109,0,0,1-.556-.057,1.4,1.4,0,0,1-.048-.689c0-.9-.1-.6.45-1.322,1.551-2.04,3.112-4.07,4.663-6.11.105-.134.191-.268.287-.4-.125-.153-.268-.105-.393-.105h-4.252c-.163,0-.335-.01-.507-.01a3.161,3.161,0,0,1-.067-1.073c-.01-.335,0-.67.01-1.034a3.486,3.486,0,0,1,.4-.048h7.68c.182,0,.364.01.574.019a2.146,2.146,0,0,1,.038.316c.009.316-.01.642.009.958a.969.969,0,0,1-.23.651c-.68.881-1.36,1.762-2.03,2.643-.919,1.207-1.848,2.4-2.768,3.61A1.121,1.121,0,0,0,1137.129,370.676Z" transform="translate(-903.609 -116.466)"/>
    <path id="Path_46" data-name="Path 46" class="cls-1" d="M883.742,361.848c.01.134.029.268.038.4.057,3.945.029,9.931-.057,10.352a.322.322,0,0,1-.134.048c-.737.01-1.484.01-2.222.01a1.329,1.329,0,0,1-.22-.048c-.01-.134-.029-.268-.029-.4-.057-3.945-.029-9.912.057-10.352a.322.322,0,0,1,.134-.048c.737,0,1.484-.01,2.222-.01A1.8,1.8,0,0,0,883.742,361.848Z" transform="translate(-675.368 -116.285)"/>
    <path id="Path_47" data-name="Path 47" class="cls-2" d="M947.41,444.229a25.911,25.911,0,0,1,.019,2.873.826.826,0,0,1-.163.067h-2.614a.735.735,0,0,1-.163-.048,9.1,9.1,0,0,1-.029-1.446c-.01-.469-.01-.939.01-1.36.048-.057.057-.067.067-.077a.073.073,0,0,1,.048-.019c.852-.01,1.714-.019,2.566-.019C947.218,444.2,947.3,444.219,947.41,444.229Z" transform="translate(-732.658 -190.794)"/>
    <path id="Path_48" data-name="Path 48" class="cls-1" d="M883.639,308.544h-2.672c-.029-.057-.067-.1-.067-.144v-2.634a.511.511,0,0,1,.192-.067h2.365a.97.97,0,0,1,.172.048,4.589,4.589,0,0,1,.038.891c.01.316,0,.642,0,.958S883.648,308.2,883.639,308.544Z" transform="translate(-675.198 -65.557)"/>
    <path id="Path_49" data-name="Path 49" d="M134.2,233.2"/>
    <g id="Group_41" data-name="Group 41" transform="translate(143 243.284)">
      <g id="Group_38" data-name="Group 38" transform="translate(0.862 0.871)">
        <ellipse id="Ellipse_2" data-name="Ellipse 2" class="cls-3" cx="3.61" cy="3.61" rx="3.61" ry="3.61"/>
        <ellipse id="Ellipse_3" data-name="Ellipse 3" class="cls-3" cx="3.61" cy="3.61" rx="3.61" ry="3.61" transform="translate(8.513 0.259)"/>
      </g>
      <g id="Group_39" data-name="Group 39" transform="translate(0 0)">
        <path id="Path_50" data-name="Path 50" class="cls-2" d="M230.572,347.444a4.479,4.479,0,1,1,3.16-1.312A4.44,4.44,0,0,1,230.572,347.444Zm0-7.546a3.084,3.084,0,1,0,3.083,3.084A3.088,3.088,0,0,0,230.572,339.9Z" transform="translate(-226.1 -338.5)"/>
      </g>
      <g id="Group_40" data-name="Group 40" transform="translate(8.513 0.259)">
        <path id="Path_51" data-name="Path 51" class="cls-2" d="M319.472,350.144a4.479,4.479,0,1,1,3.16-1.312A4.44,4.44,0,0,1,319.472,350.144Zm0-7.546a3.084,3.084,0,1,0,3.083,3.084A3.088,3.088,0,0,0,319.472,342.6Z" transform="translate(-315 -341.2)"/>
      </g>
    </g>
    <ellipse id="Ellipse_4" data-name="Ellipse 4" class="cls-1" cx="0.804" cy="0.804" rx="0.804" ry="0.804" transform="translate(146.534 247.162)"/>
    <ellipse id="Ellipse_5" data-name="Ellipse 5" class="cls-1" cx="0.804" cy="0.804" rx="0.804" ry="0.804" transform="translate(155.181 247.162)"/>
    <path id="Path_52" data-name="Path 52" class="cls-2" d="M308.085,420.018c-.124-.019-.948-.1-.756,1.015a4.282,4.282,0,0,0,.737,1.82v.038l.019-.019.019.019v-.038a4.28,4.28,0,0,0,.737-1.82C309.033,419.922,308.219,420,308.085,420.018Z" transform="translate(-156.524 -168.92)"/>
  </g>
</svg>
